<svg version="1" xmlns="http://www.w3.org/2000/svg" width="689.333" height="689.333" viewBox="0 0 517.000000 517.000000"><path d="M249.7 14.7c-.1.1-3.6.4-7.7.7-13.3.9-23.4 2.2-32 4.1-1.4.3-4.5 1-7 1.5-6.7 1.3-16.4 4.1-17.5 5-.6.5-3 1.2-5.3 1.6-2.3.4-4.2 1-4.2 1.4 0 .4-1.2 1-2.7 1.3-1.6.3-4.6 1.4-6.8 2.3-2.2 1-4.2 1.8-4.5 1.9-.3 0-4.3 1.9-9 4.2-4.7 2.2-8.9 4.1-9.4 4.1s-1.2.5-1.5 1c-.6.9-6.6 4.3-7.6 4.2-.3 0-1.5.9-2.7 2-1.2 1.1-2.8 2-3.5 2-.7 0-1.3.4-1.3.8s-1.3 1.6-3 2.5c-1.6 1-3 1.5-3 1.2 0-.3-1.1.6-2.5 2.1S116 61 116 60.7c0-.3-1.2.5-2.7 1.9-1.4 1.3-2.8 2.2-3 2-.3-.2-1.7.8-3.1 2.3-1.5 1.5-5.3 4.8-8.4 7.3-3.1 2.5-5.4 4.8-5.1 5.2.4.3.2.6-.4.6-1.3 0-9.8 8.3-17.8 17.5-3.3 3.8-6.8 7.7-7.7 8.7-1 1-1.8 2.2-1.8 2.8 0 .5-.4 1-1 1-.5 0-1 .4-1 .9 0 .6-1.1 2.2-2.5 3.7s-2.5 3.3-2.5 4c0 .7-1 2-2.2 2.8-1.2.9-1.8 1.6-1.3 1.6.6 0 .1.7-.9 1.5-1.1.8-1.6 1.5-1.2 1.5.4 0 0 .7-.8 1.6-.9.8-1.6 2.4-1.6 3.5 0 1-.4 1.9-1 1.9-.5 0-1.9 1.9-3.1 4.2-1.2 2.4-2.7 5.3-3.3 6.5-.6 1.3-1.4 2.3-1.8 2.3-.5 0-.8.6-.8 1.4 0 .7-1 2.6-2.1 4.1-1.7 2-1.9 2.9-1 3.5.9.5.8.9-.5 1.4-.9.3-1.4.9-1.1 1.2.3.4-.3 1.5-1.3 2.7-1.1 1.1-1.7 2.4-1.4 2.8.3.5-.2 1.9-1 3.1-1.3 2.2-9.2 24.6-9.9 28.5-.2 1-.7 2.5-1 3.3-.4.8-.9 2.8-1.1 4.5-.2 1.6-.6 3.7-1 4.5-.8 2.2-1.7 7.1-3.2 17-1.1 7.7-1.5 11.8-1.7 17.2-.1 3.2-.5 5.8-.8 5.8-.9 0-.6 2 .4 3.7.4.6.4 1.4 0 1.6-1 .6-.9 15 .1 16.6.4.6.2 1.1-.4 1.1-.6 0-.9.4-.5.9.3.5.8 4.5 1 8.8.6 7.7 1.2 13.8 1.5 13.8.1 0 .4 1.6.6 3.5.7 5.2 1 7.2 1.6 10 .4 1.4 1.2 5.2 1.9 8.5s1.4 6.4 1.5 7c.2.5.8 2.6 1.3 4.5 2 7.2 4.6 14.6 7.1 20.5.8 1.6 1.4 3.4 1.6 4 .7 3.1 12.8 27.9 14.4 29.5.3.3 1.4 2.2 2.5 4.3 1.1 2 2.3 3.7 2.8 3.7.4 0 .5.4.2 1-.3.5-.1 1 .4 1 .6 0 1 .3.8.8-.1.4.8 1.8 2 3.2 1.3 1.3 2.9 3.6 3.5 5.2.7 1.5 1.7 2.8 2.1 2.8.5 0 .5.4.2 1-.3.5.1 1 .9 1s1.7.8 2 1.7c.4 1 1.9 3.2 3.4 5 1.5 1.7 4.5 5.3 6.7 7.9 4.9 5.8 7.6 8.4 8.7 8.4.4 0 .7.4.5.8-.2.7 2.8 3.7 13.3 13.1 2.5 2.3 5.1 4.1 5.9 4.1.8 0 1.2.3.8.6-.3.4 1.7 2.3 4.6 4.4 2.9 2.1 5.9 4.4 6.7 5.2.9.7 3.8 2.6 6.5 4.2 2.8 1.6 6.3 4 7.8 5.2 1.5 1.3 6.2 4 10.4 6s9.3 4.6 11.4 5.9c2 1.3 3.9 2.2 4.2 1.9.3-.3 2 .4 3.8 1.5 1.8 1.1 3.6 1.8 4 1.6.4-.3 1.2.2 1.9 1s2.1 1.5 3 1.5c1 0 4 .9 6.6 2 2.5 1.1 5.7 2.1 7 2.2 1.3.1 2.4.6 2.4 1s.9.8 1.9.8c1.1 0 2.3.5 2.6 1 .4.6 1 .8 1.4.5.5-.2 2.3 0 4.2.6 1.9.5 5 1.2 6.9 1.5 4.3.8 4.6.8 9 1.9 1.9.4 4.6.9 6 1.1 1.4.1 2.5.3 2.5.4 0 .1 1.4.3 3 .5 1.7.2 5.7.6 9 1 7.6.9 36.1 1 44 .1 6.3-.6 14.6-1.6 18-2.1 5.2-.7 20.6-4.2 23.5-5.2.8-.3 2.4-.8 3.5-1 1.1-.2 2.7-.6 3.5-1 .8-.3 2.6-.8 3.9-1 1.4-.2 3.3-.9 4.3-1.4 1.1-.6 2.9-1.2 4.1-1.5 1.1-.2 3.5-1 5.2-1.8 1.6-.8 4.8-2.1 6.9-3 3.7-1.6 3.8-1.7 2-3.1-1-.8-2.2-1.5-2.5-1.5-.3 0-10-5.5-21.5-12.2-11.5-6.7-22.7-13.1-25-14.4-2.2-1.2-5.9-3.4-8.2-4.8-2.3-1.4-4.6-2.6-5.2-2.6-.5 0-1-.5-1-1.1 0-.5-.4-.8-.9-.4-.5.3-1.2.1-1.5-.4-.3-.5-5.2-3.5-10.8-6.7-5.7-3.1-11.1-6.4-12-7.2-1-.8-1.8-1.2-1.8-.8 0 .4-1.3-.2-2.9-1.3-1.6-1.2-3.4-2.1-4-2.1-.6 0-1.1-.3-1.1-.8 0-.4-1.7-1.6-3.7-2.7-2.1-1.1-10.3-5.7-18.3-10.4-8-4.6-16.2-9.4-18.3-10.5-12.9-7.2-31.4-18.1-32.7-19.3-.8-.8-3.6-2.8-6.1-4.6-5.7-3.9-15.5-12.4-18.3-15.6-1.2-1.4-2.8-3.2-3.6-4-6.8-7.2-17.2-22.5-21.6-31.6-1.6-3.3-2.9-6.2-2.9-6.5 0-.3-.3-1-.7-1.6-1.1-1.7-4.7-11.7-5.1-14.1-.2-1.2-.6-2.6-1-2.9-.4-.4-.7-1.7-.7-2.8 0-1.2-.7-4-1.5-6.4-.9-2.4-1.3-4.8-1-5.3.4-.5.3-1.5-.2-2.1-1.1-1.8-1.6-8.5-1.7-22.8-.1-14.6.8-22.8 3.5-33.5.6-2.2 1.1-4.8 1.2-5.8.1-.9.5-1.7.9-1.7s.5-.7.2-1.5c-.4-.8-.1-1.5.6-1.5.6 0 1-.8.8-1.8-.2-1.1.3-2.6 1.1-3.5.7-1 1.1-1.7.7-1.7-.4 0 0-1.3.9-3 .8-1.6 1.5-3.1 1.4-3.2-.4-.6 4.1-8.7 5.1-9.3.6-.4.8-1 .5-1.5-.3-.4.2-1.3 1-2s1.2-1.6.9-2.1c-.3-.5-.1-.9.4-.9s1.5-1.4 2.2-3c.7-1.7 1.7-3 2.2-3 .5 0 .7-.4.4-.9-.3-.5.1-1.4.9-2.1.8-.7 1.5-1.6 1.5-2.1s.9-1.9 2-3.2c2.2-2.4 2.8-3.1 8.4-10 2.1-2.6 4.2-4.4 4.7-4.1.5.3.9-.1.9-.8 0-.8.8-2 1.8-2.8 11.6-10 15.4-13 16-13 .5 0 3.2-1.8 6.1-3.9 6.5-4.9 25.1-14.1 28.3-14.1.8 0 1.8-.4 2.4-.9.8-.8 17.1-5.2 24.1-6.5 6.5-1.3 27.5-2.4 30.3-1.6.3 0 3 .3 6 .5 11.7.9 31.9 5.4 34.4 7.7.6.4 2 .8 3.2.8 1.2 0 2.4.5 2.6 1 .2.6 1.3 1.2 2.6 1.5 2.5.4 8.4 3.5 9.3 4.9.4.5 1.3.6 2 .4.8-.3 3.2.9 5.4 2.7 2.2 1.7 5.5 4 7.4 5.1 3.8 2.1 6.6 4.3 11.8 9.1 1.9 1.8 3.6 3.3 3.9 3.3.7 0 10.4 10.3 10.4 11.2 0 .4.7.8 1.5.8s1.4.4 1.3.8c-.3.9 3.3 6.1 6 8.8.6.7 1.2 1.5 1.2 1.7 0 .3 1.8 3.2 4 6.5s4 6.5 4 7.1c0 .6.5 1.1 1 1.1.6 0 .9.3.8.7-.1.5.9 3 2.1 5.8 4.8 10.4 7.1 16.5 6.4 16.5-.3 0 0 .7.7 1.5.6.8.9 1.9.5 2.5-.3.5-.1 1 .5 1 .7 0 1 .6.7 1.4-.3.8-.3 1.7.1 2 .3.4.7 1.2.8 1.9.6 3.4 1.3 6.9 1.8 8.5 1.7 6 2.5 32 1.2 41.7-.4 2.7-.9 6.8-1.1 9-.3 2.2-1.5 7.4-2.6 11.5-1.2 4.1-2.3 8.2-2.4 9-.2.8-.4 1.6-.5 1.7-.2.2-.3.6-.4 1-.1.5-.7 1.8-1.4 3-.7 1.3-1 2.3-.7 2.3.3 0-.2 1.1-1.1 2.5-.8 1.3-1.3 2.9-.9 3.5.3.5.2 1-.4 1-.6 0-1.3 1.1-1.7 2.5-.3 1.4-1 2.5-1.5 2.5s-.9.4-.9.9c0 1.4-9.6 17.3-11.9 19.7-1.1 1.2-1.7 2.4-1.4 2.7.3.3-.4 1.2-1.6 1.9-1.2.7-2.1 1.6-2.1 2 0 .3-1.6 2.3-3.5 4.2-1.9 2-3.5 4.2-3.5 4.8 0 .6-.2.9-.5.6-.5-.5-8.5 6.9-8.5 7.8 0 .6 6.5 3.8 7.3 3.6.4-.1.7.3.7.8 0 .6 1.2 1.6 2.8 2.3 1.5.7 5.5 2.9 8.8 4.9 3.4 2.1 6.6 3.8 7.2 3.8.6 0 1.2.4 1.4.9.2.5 1 1.1 1.8 1.3.8.2 1.7.5 2 .9 1 1.1 8.5 5.4 9.2 5.2.3-.1 1.2.4 1.8 1.2.7.8 1.9 1.5 2.6 1.5.8 0 1.4.4 1.4 1 0 .5.4 1 .9 1s4.9 2.3 9.8 5.1c4.8 2.9 11.3 6.5 14.3 8.2 3 1.7 5.7 3.3 6 3.6.3.3 2.5 1.6 4.9 2.9l4.4 2.2 2.6-3c1.4-1.7 3.6-4.3 4.8-5.8 1.2-1.5 3.3-4.2 4.8-5.9 1.5-1.8 2.4-3.3 2-3.3-.6 0 0-.8 4-5.4 1.4-1.7 3.3-4.6 4.2-6.5 1-2 2.2-3.9 2.7-4.3.7-.5.7-.8.1-.8s-.6-.3.1-.8c1.7-1.2 5.4-7.9 4.7-8.5-.3-.4-.2-.7.4-.7.6 0 1.6-1.4 2.3-3 .7-1.7 1.6-3 2.1-3s.8-.3.8-.8c-.1-.4 0-1 .1-1.5.1-.4.3-1 .5-1.5.1-.4 1.6-3.7 3.3-7.4 1.8-3.8 3.2-7 3.2-7.3 0-.3.7-1.9 1.5-3.5.9-1.7 1.3-3 .9-3-.3 0 .1-1.2 1.1-2.6.9-1.4 1.4-2.8 1.1-3.1-.3-.4-.2-1.1.3-1.7.8-1 3.3-9.2 3.3-10.6 0-.3.4-1 .9-1.6.4-.6.9-2.5 1.1-4.2.1-1.8.5-3.2.8-3.2.4 0 .7-.6.7-1.3.2-3 1.3-9.6 2.1-11.8.4-1.3.8-3.1.7-3.9-.1-.8.1-1.9.4-2.5.5-1 1.1-4.8 1.6-11 .2-2.2.4-4 .5-4 .4 0 .9-12.7.9-24.5 0-12.4-.2-15.4-1.4-26-1.7-15.4-2.4-19.6-3.5-23-.5-1.4-1.2-4.5-1.5-6.9-.4-2.3-1-5.4-1.5-6.7-.5-1.3-.7-2.4-.4-2.4.4 0-.1-1.1-.9-2.4-.9-1.2-1.9-4.1-2.3-6.2-.3-2.1-1.3-5.1-2-6.6-.8-1.5-1.6-3.5-1.8-4.5-.4-2-2.5-7.1-6.3-15.3-1.4-3-2.6-6.1-2.6-6.8 0-.6-.3-1.2-.7-1.2-.4 0-2-2.7-3.6-6s-3.3-6-3.7-6c-.5 0-.5-.5-.2-1 .3-.6.2-1-.3-1s-1.2-.8-1.6-1.8c-1.2-3.5-4.3-8.1-5.1-7.4-.5.4-.5-.1-.2-1.1.4-.9.2-1.7-.2-1.7-.5 0-2-1.7-3.2-3.8-1.3-2-3.1-4.4-4.1-5.3-1-.9-1.5-1.9-1.1-2.3.3-.3.1-.6-.5-.6-.7 0-1.2-.4-1.2-.9 0-1-4-5.8-10.1-12.2-2-2.1-3.4-4.1-3.1-4.4.3-.3-.3-.5-1.3-.5s-1.6-.3-1.2-.6c.8-.8-11.3-12.4-23-22.1-4.8-4-5.9-4.9-8.3-6.4-1.4-.9-3.8-2.8-5.5-4.3-1.6-1.4-3.3-2.6-3.7-2.6-.4 0-7.3-3.8-15.3-8.5s-15.3-8.8-16.3-9.2c-.9-.3-3.7-1.4-6.2-2.6-2.5-1.1-5.6-2.5-7-3-1.4-.5-3.4-1.3-4.5-1.8-3.4-1.3-14.7-5.1-15.9-5.3-.6-.1-1.7-.5-2.3-.9-.7-.5-1.7-.5-2.3-.2-.5.3-1 .1-1-.5s-.4-.9-.8-.6c-.5.3-3-.1-5.5-.9-2.6-.8-4.9-1.4-5.2-1.5-.3 0-.6 0-.7-.1-1.6-.4-4.8-1-7-1.1-1.6 0-2.8-.4-2.8-.7 0-.3-1.2-.7-2.7-.7-1.6-.1-5.3-.4-8.3-.8-10.8-1.3-36.6-2.6-37.3-1.9z"/><path d="M250.7 202.7c-.3.2-2.6.6-5.3 1-2.7.3-5.1.8-5.4 1.2-.3.3-1.6.8-3 1-1.4.1-2.7.6-3 1-.3.3-2.3 1.5-4.5 2.6-3.9 1.9-13.2 8.5-12.1 8.5.3 0-.9 1.5-2.7 3.2-3.4 3.4-9.3 12.7-8.9 14 .1.5-.2.8-.6.8-.4 0-.9 1-.9 2.2-.1 1.3-.7 2.4-1.3 2.6-.5.2-.8.8-.4 1.3.3.5.2 1.4-.2 2.1-2.8 4.5-2 27.8 1.1 32.5.9 1.3 1.3 2.3 1 2.3-1.7 0 9.5 16.9 11.3 17 .6 0 1.2.7 1.2 1.5s.7 1.5 1.5 1.5 1.5.4 1.5.9c0 .9 13.4 9.2 15.3 9.5.7.1 1.7.5 2.3.9.6.3 2.5.8 4.3.9 1.7.1 3.1.5 3.1.8 0 .8 1.2.9 10 1 3.6 0 8-.4 9.9-1 1.9-.5 3.7-.8 3.9-.5.3.3 1 0 1.7-.5.6-.5 2.1-1.1 3.2-1.3 1.2-.2 2.8-.8 3.5-1.5.8-.6 1.7-1 2-.7.3.3 1.1-.1 1.8-1 .7-.8 1.8-1.5 2.5-1.5.6 0 2-.9 3-2s2.2-2 2.8-2c.5 0 1.8-1 2.9-2.3 1.1-1.2 3.3-3.7 4.9-5.4 1.6-1.8 3.5-4.4 4.1-5.8.6-1.4 1.4-2.5 1.8-2.5.4 0 1-.8 1.3-1.8.4-.9 1.5-4.1 2.6-7.1 2.9-7.8 4.4-20.1 2.9-23.4-.6-1-.5-1.7.2-1.7s.8-.6.1-1.8c-.6-1.1-1.2-3.1-1.5-4.6-1.7-9.6-7.3-19.3-15.8-27.8-5-4.9-19.9-12.7-23-12-.5.1-.8-.2-.8-.6 0-.8 0-.8-10.7-1.5-4-.2-7.4-.2-7.6 0z"/></svg>